<svg xmlns="http://www.w3.org/2000/svg" xmlns:xlink="http://www.w3.org/1999/xlink" enable-background="new 0 0 2100 2100" viewBox="0 0 2100 2100"><path fill="#fff" d="M0 0h2100v2100H0z"/><path fill="#cae0ff" d="M1729.99 397.72c347.95 235.99 33.39 484.08 144.75 624.99 137.21 173.61 207.21 486.87-128.81 722.57-98.52 69.11-651.52 2.11-1177.45 40.28-292.92 21.26-764.73-471.33-286.44-1114.69 273.75-368.24 1060.67-535.82 1447.95-273.15zM1945.29 706.7c-7.09-16.71-4.82-36.85-1.89-50.23 1.73-7.91 10.74-11.78 17.66-7.58 14.08 8.54 32.35 23.48 18.78 37.88-6.48 6.88-10.4 13.52-12.73 19.4-3.87 9.77-17.72 10.2-21.82.53z"/><path fill="#cae0ff" d="M2011.01 1029.2c-18.2 42.91-93.66 24.38-120.73-90.73-26.5-112.72 79.53-233.83 81.54-145.82 3.82 166.53 66.78 171.5 39.19 236.55z"/><g><defs><path id="a" d="M1729.99 397.72c347.95 235.99 33.39 484.08 144.75 624.99 137.21 173.61 207.21 486.87-128.81 722.57-98.52 69.11-651.52 2.11-1177.45 40.28-292.92 21.26-764.73-471.33-286.44-1114.69 273.75-368.24 1060.67-535.82 1447.95-273.15z"/></defs><clipPath id="b"><use overflow="visible" xlink:href="#a"/></clipPath><g clip-path="url(#b)"><path fill="#b1ccfc" d="M1581.39 1573.2H101.75c-32.57 0-58.97-26.4-58.97-58.97V501.04c0-32.57 26.4-58.97 58.97-58.97h1479.64c32.57 0 58.97 26.4 58.97 58.97v1013.18c0 32.57-26.4 58.98-58.97 58.98z"/><path fill="#6e92f9" d="M1582.15 442.07H100.99c-32.15 0-58.22 26.75-58.22 59.74v41.13h1597.59v-41.13c0-33-26.06-59.74-58.21-59.74z"/><ellipse cx="1525.57" cy="492.5" fill="#3838ba" rx="17.95" ry="18.42"/><ellipse cx="1466.5" cy="492.5" fill="#3838ba" rx="17.95" ry="18.42"/><ellipse cx="1407.42" cy="492.5" fill="#3838ba" rx="17.95" ry="18.42"/><defs><circle id="c" cx="281.58" cy="785.35" r="125.99"/></defs><use fill="#f8fbff" opacity=".8" overflow="visible" xlink:href="#c"/><clipPath id="d"><use opacity=".8" overflow="visible" xlink:href="#c"/></clipPath><g clip-path="url(#d)"><circle cx="281.58" cy="746.72" r="55.87" fill="#8cb6f4"/><path fill="#8cb6f4" d="M319.29 803.02c-4.58-1-9.33-.2-13.55 1.85a55.379 55.379 0 0 1-24.16 5.54c-8.67 0-16.85-2.01-24.16-5.54-4.22-2.04-8.97-2.85-13.55-1.85-22.18 4.84-38.8 24.55-38.8 48.19v117.32c0 11.2 9.08 20.29 20.29 20.29H337.8c11.2 0 20.29-9.08 20.29-20.29V851.21c0-23.64-16.62-43.35-38.8-48.19z"/></g><path fill="#f8fbff" d="M540.06 658.25h342.28v276.38H540.06z" opacity=".7"/><circle cx="638.48" cy="712.68" r="30.94" fill="#cae0ff"/><path fill="#cae0ff" d="M882.34 934.63V829.08l-88.28-108.82-97.18 113.32-90.18-63.93-66.64 44.57v120.41h70.17zM812.31 970.32H539.85c-3.79 0-6.86-3.07-6.86-6.86 0-3.79 3.07-6.86 6.86-6.86h272.46c3.79 0 6.86 3.07 6.86 6.86 0 3.79-3.07 6.86-6.86 6.86zM660.87 1002.67H539.85c-3.79 0-6.86-3.07-6.86-6.86 0-3.79 3.07-6.86 6.86-6.86h121.02c3.79 0 6.86 3.07 6.86 6.86 0 3.79-3.07 6.86-6.86 6.86z"/><path fill="#f8fbff" d="M1212.28 658.25h342.28v276.38h-342.28z" opacity=".7"/><circle cx="1310.7" cy="712.68" r="30.94" fill="#cae0ff"/><path fill="#cae0ff" d="M1554.56 934.63V829.08l-88.28-108.82-97.18 113.32-90.18-63.93-66.64 44.57v120.41h70.17zM1415.03 965.19h-195.89c-3.79 0-6.86-3.07-6.86-6.86 0-3.79 3.07-6.86 6.86-6.86h195.89c3.79 0 6.86 3.07 6.86 6.86 0 3.79-3.07 6.86-6.86 6.86zM1541.04 1026.42h-321.9c-3.79 0-6.86-3.07-6.86-6.86 0-3.79 3.07-6.86 6.86-6.86h321.9c3.79 0 6.86 3.07 6.86 6.86-.01 3.79-3.08 6.86-6.86 6.86zM1340.16 995.81h-121.02c-3.79 0-6.86-3.07-6.86-6.86 0-3.79 3.07-6.86 6.86-6.86h121.02c3.79 0 6.86 3.07 6.86 6.86 0 3.79-3.07 6.86-6.86 6.86z"/><path fill="#f8fbff" d="M1212.28 1055.72h342.28v276.38h-342.28z" opacity=".7"/><circle cx="1310.7" cy="1110.15" r="30.94" fill="#cae0ff"/><path fill="#cae0ff" d="M1554.56 1332.1v-105.55l-88.28-108.83-97.18 113.33-90.18-63.93-66.64 44.57v120.41h70.17zM1491.6 1387.51h-272.46c-3.79 0-6.86 3.07-6.86 6.86 0 3.79 3.07 6.86 6.86 6.86h272.46c3.79 0 6.86-3.07 6.86-6.86-.01-3.79-3.08-6.86-6.86-6.86zM1340.16 1355.17h-121.02c-3.79 0-6.86 3.07-6.86 6.86 0 3.79 3.07 6.86 6.86 6.86h121.02c3.79 0 6.86-3.07 6.86-6.86 0-3.79-3.07-6.86-6.86-6.86z"/><path fill="#f8fbff" d="M920.96 658.25h252.7V862.3h-252.7z" opacity=".7"/><circle cx="993.62" cy="698.44" r="22.84" fill="#cae0ff"/><path fill="#cae0ff" d="M1173.66 862.3v-77.93l-65.18-80.34-71.74 83.66-66.58-47.2-49.2 32.91v88.9h51.81zM1130.78 894.51H925.39c-3.79 0-6.86-3.07-6.86-6.86 0-3.79 3.07-6.86 6.86-6.86h205.39c3.79 0 6.86 3.07 6.86 6.86 0 3.79-3.07 6.86-6.86 6.86zM1093.72 926.85H925.39c-3.79 0-6.86-3.07-6.86-6.86 0-3.79 3.07-6.86 6.86-6.86h168.33c3.79 0 6.86 3.07 6.86 6.86 0 3.79-3.07 6.86-6.86 6.86z"/><path fill="#f8fbff" d="M926.48 971.42h247.18v310.1H926.48z" opacity=".7"/><ellipse cx="997.55" cy="1010.59" fill="#cae0ff" rx="22.34" ry="22.26"/><path fill="#cae0ff" d="m1109.91 1016.04-70.18 81.54-65.13-46-48.12 32.07v197.91h247.18v-187.22zM1133.69 1318.3H928.3c-3.79 0-6.86-3.07-6.86-6.86 0-3.79 3.07-6.86 6.86-6.86h205.39c3.79 0 6.86 3.07 6.86 6.86-.01 3.79-3.08 6.86-6.86 6.86zM1096.63 1350.64H928.3c-3.79 0-6.86-3.07-6.86-6.86 0-3.79 3.07-6.86 6.86-6.86h168.33c3.79 0 6.86 3.07 6.86 6.86-.01 3.79-3.08 6.86-6.86 6.86z"/><path fill="#f8fbff" d="M533 1030.08h339.97v274.51H533z" opacity=".7"/><circle cx="630.75" cy="1084.14" r="30.73" fill="#cae0ff"/><path fill="#cae0ff" d="M872.96 1304.59v-104.84l-87.68-108.09-96.52 112.56-89.58-63.5-66.18 44.27v119.6h69.69zM791.84 1340.33H539.35c-3.51 0-6.35-2.85-6.35-6.35 0-3.51 2.85-6.35 6.35-6.35h252.49c3.51 0 6.35 2.84 6.35 6.35.01 3.5-2.84 6.35-6.35 6.35zM651.5 1370.3H539.35c-3.51 0-6.35-2.84-6.35-6.35s2.85-6.35 6.35-6.35H651.5c3.51 0 6.35 2.84 6.35 6.35.01 3.5-2.84 6.35-6.35 6.35z"/><path fill="#f8fbff" d="M434.72 1006.61v-15.03c0-3.7-3-6.69-6.69-6.69H168.52c-3.7 0-6.69 3-6.69 6.69v15.03c0 3.7 3 6.69 6.69 6.69h259.51c3.69.01 6.69-2.99 6.69-6.69z" opacity=".7"/><path fill="#8cb6f4" d="M260.22 1079.64v.13a7.95 7.95 0 0 0 7.95 7.95h207.25a7.95 7.95 0 0 0 7.95-7.95v-.13a7.95 7.95 0 0 0-7.95-7.95H268.17a7.95 7.95 0 0 0-7.95 7.95zM245.2 1079.72v-.03c0-4.4-3.6-8.01-8.01-8.01h-67.36c-4.42 0-8.01 3.59-8.01 8.01v.01a8.02 8.02 0 0 0 8.02 8.02h67.35c4.41.01 8.01-3.59 8.01-8zM341.32 1042.62v.13a7.95 7.95 0 0 0 7.95 7.95h74.35a7.95 7.95 0 0 0 7.95-7.95v-.13a7.95 7.95 0 0 0-7.95-7.95h-74.35a7.95 7.95 0 0 0-7.95 7.95zM310.26 1042.69c0-4.41-3.61-8.02-8.02-8.02h-132.4c-4.41 0-8.02 3.61-8.02 8.02s3.61 8.02 8.02 8.02h132.39c4.42 0 8.03-3.61 8.03-8.02zM207.5 1116.75v-.01c0-4.41-3.61-8.02-8.02-8.02h-29.64a8.02 8.02 0 0 0-8.02 8.02 8.02 8.02 0 0 0 8.02 8.02h29.65c4.4 0 8.01-3.61 8.01-8.01zM432.6 1108.72H243.34a7.95 7.95 0 0 0-7.95 7.95v.13a7.95 7.95 0 0 0 7.95 7.95H432.6a7.95 7.95 0 0 0 7.95-7.95v-.13a7.95 7.95 0 0 0-7.95-7.95zM351.91 1317.05v-.13a7.95 7.95 0 0 1 7.95-7.95h95.43a7.95 7.95 0 0 1 7.95 7.95v.13a7.95 7.95 0 0 1-7.95 7.95h-95.43c-4.39.01-7.95-3.55-7.95-7.95zM198.37 1316.98v.01c0 4.41-3.61 8.01-8.01 8.01h-20.58a7.95 7.95 0 0 1-7.95-7.95v-.13a7.95 7.95 0 0 1 7.95-7.95h20.58c4.43 0 8.01 3.59 8.01 8.01zM330.21 1325.01h-97.26a7.95 7.95 0 0 1-7.95-7.95v-.13a7.95 7.95 0 0 1 7.95-7.95h97.26a7.95 7.95 0 0 1 7.95 7.95v.13a7.95 7.95 0 0 1-7.95 7.95zM260.22 1243v-.13a7.95 7.95 0 0 1 7.95-7.95h207.25a7.95 7.95 0 0 1 7.95 7.95v.13a7.95 7.95 0 0 1-7.95 7.95H268.17c-4.39.01-7.95-3.55-7.95-7.95zM245.2 1242.93v.02c0 4.42-3.59 8.01-8.01 8.01h-67.36c-4.42 0-8.01-3.59-8.01-8.01v-.01c0-4.41 3.61-8.02 8.02-8.02h67.35c4.43 0 8.01 3.58 8.01 8.01zM341.32 1280.03v-.13a7.95 7.95 0 0 1 7.95-7.95h74.35a7.95 7.95 0 0 1 7.95 7.95v.13a7.95 7.95 0 0 1-7.95 7.95h-74.35a7.95 7.95 0 0 1-7.95-7.95zM310.26 1279.96c0 4.41-3.61 8.02-8.02 8.02h-132.4a8.02 8.02 0 0 1-8.02-8.02c0-4.41 3.61-8.02 8.02-8.02h132.39c4.42 0 8.03 3.61 8.03 8.02zM207.5 1205.9v.01c0 4.41-3.61 8.02-8.02 8.02h-29.65c-4.42 0-8.01-3.59-8.01-8.01v-.01c0-4.41 3.61-8.02 8.02-8.02h29.65c4.42 0 8.01 3.59 8.01 8.01zM432.6 1213.93H243.34a7.95 7.95 0 0 1-7.95-7.95v-.13a7.95 7.95 0 0 1 7.95-7.95H432.6a7.95 7.95 0 0 1 7.95 7.95v.13a7.95 7.95 0 0 1-7.95 7.95z"/></g><defs><path id="e" d="M1729.99 397.72c347.95 235.99 33.39 484.08 144.75 624.99 137.21 173.61 207.21 486.87-128.81 722.57-98.52 69.11-651.52 2.11-1177.45 40.28-292.92 21.26-764.73-471.33-286.44-1114.69 273.75-368.24 1060.67-535.82 1447.95-273.15z"/></defs><clipPath id="f"><use overflow="visible" xlink:href="#e"/></clipPath><g clip-path="url(#f)"><path fill="#002756" d="M525.6 1977.34s-121.52-45.31-117.59-65.51c3.93-20.2 108.41-8.21 108.41-8.21l9.18 73.72zM1055.38 1965.85c25.64-1.17 49.13-12.33 62.59-29.75l4.35-5.63s-29.06-36.05-70.65-46c-41.58-9.95 3.71 81.38 3.71 81.38z"/><path fill="#cae0ff" d="M936.32 1082.44c-82-37.97-135.54-59.92-170.83-67.68-57.45-12.62-150.25 27.08-188.81 42.36 0 0-24.49 329.37-34.77 448.91-8.52 99.01-24.89 404.03-24.89 404.03l141.45-18.56A980.437 980.437 0 0 1 985 1903.58l9.16 1.9s37.93-457.21 25.84-547.43c-6.47-48.12-25.27-248.55-83.68-275.61z"/><path fill="#f6ad83" d="m690.68 1025.91-3.31-76.23 175.69 43.16-.79 56c20.47 32.58 24.1 66.3 6.08 85.63-25.13 26.96-82.84 15.74-128.89-25.08-19.64-17.41-33.76-36.91-41.74-54.29a78.028 78.028 0 0 1-7.04-29.19z"/><path fill="#554edd" d="M868 1055.3c-1.48 2.45 1.75.35 59.55 16.76s84.36 190.62 92.72 273.58c10.26 101.71 101.73 582.8 101.73 582.8l-36.98-6.65c-27.23-4.9-55.06-5.48-82.47-1.72l-66.48 10.15s-56.78-282.24-61.04-363.19c-4.26-80.95-21.36-284.66-10.95-347.77 5.96-36.09 3.92-163.96 3.92-163.96z"/><path fill="#3838ba" d="M892.55 1374.57c7.74 129.08 69.92 475.57 83.45 549.95l-41.57 5.7s-56.78-282.24-61.04-363.19c-4.26-80.95-25.3-314.2-5.64-406.55h24.8s-8.69 69.13 0 214.09z"/><path fill="#003177" d="M861.73 1200.84c2.25-11.83 5.17-26.51 8.32-42.01l16.38-10.6s4.31 11.54 24 10.89c1.02-.03 20.58 42.85 20.58 42.85s-21.48-26.96-39.24-24.7c-12.49 1.59-22.86 16.13-30.04 23.57zM683.36 760.3s-11.76-20.62-28.56-21.01c-23.23-.55-55.82 40.26-58.46 90.67-3.24 61.88 28.89 109.48 69.5 132.76 86.44 49.55 15.97-59.57 10.62-108.94-5.64-52.2 6.9-93.48 6.9-93.48z"/><path fill="#f6ad83" d="M638.65 830.77c4.7-1.07 9.39-1.16 13.86-.41-.04-72.32 39.89-134.53 101-148.51 73.56-16.83 149.91 42.58 170.52 132.7 20.61 90.12-14.22 200.95-95.88 193.64-68.95-6.18-137.27-33.31-164.27-111.03a35.758 35.758 0 0 1-9.25 3.54c-19.31 4.42-38.55-7.66-42.96-26.97-4.41-19.3 7.67-38.54 26.98-42.96z"/><path fill="#f4a076" d="M645.12 829.91c.25 10.79 2.02 28.76 7.46 52.34 1.62 7.02 3.17 12.87 4.63 17.75 2.35-.73 4.58-1.7 6.68-2.85 2.59 7.45 5.56 14.42 8.87 20.96l2.72-3.46-22.57-96.63c-.26 4.07-.4 8.18-.4 12.33-2.41-.39-4.89-.54-7.39-.44zM678.82 757.78s9.64 31.49 24.06 37.21c27.9 11.07 81.72-14 111-15.68 63.39-3.64 102 14.71 115.79 24.41 13.8 9.7-41.58-87.21-41.58-87.21l-152.77 18.72-56.5 22.55z"/><path fill="#f4a076" d="M672.08 763.58s19.95 11.62 24.05 22.89c4.1 11.27-13.9 35.27-11.65 70.03s-32.29-72.93-32.29-72.93l19.89-19.99z"/><path fill="#003177" d="M699.12 784.95c-20.69-6.02-35.68-40.84-34.56-59.03 1.46-23.72 19.91-63.91 76.44-71.6 56.53-7.69 94.49 20.27 126.54 22.96s60.2-8.09 64.96-15.39c4.76-7.3 11.25.91 14.6 9.52 8.49 21.81 14.08 42.17 7.93 46.97-1.45 1.14 55.2.68 53.42 56.05-1 31.15-39.41 39.72-74.65 30.11-26-7.09-36.54-25.58-78.73-30.57-61.91-7.32-109.68 24.44-155.95 10.98z"/><path d="M882.63 851.63c6.3-.52 10.99-6.05 10.47-12.35l-1.34-16.3c-.52-6.3-6.05-10.99-12.35-10.47-6.3.52-10.99 6.05-10.47 12.35l1.34 16.3c.52 6.3 6.05 10.99 12.35 10.47zM806.92 858.56c6.3-.52 10.99-6.05 10.47-12.35l-1.34-16.3c-.52-6.3-6.05-10.99-12.35-10.47-6.3.52-10.99 6.05-10.47 12.35l1.34 16.3c.52 6.31 6.05 10.99 12.35 10.47zM912.42 818.48c1.41.32 2.94.02 4.15-.95a4.899 4.899 0 0 0 .78-6.89c-10.57-13.27-24.56-20.82-42.81-23.11a4.907 4.907 0 0 0-5.48 4.26c-.33 2.69 1.57 5.12 4.26 5.48 15.79 1.98 27.34 8.17 36.35 19.48.73.91 1.7 1.49 2.75 1.73z"/><path fill="#3838ba" d="M863.46 1126.28c4.04-17.6-1.85-48.45-12.87-70.98l4.09-14.68c24.07 9.87 33.15 9.26 41.85 18.45 17.88 18.87 13.76 39.58 18.25 64.63 6.79 37.9 16.22 78.29 16.22 78.29l-18.04-22.35c-.39-.48-.79-.94-1.21-1.39-11.31-12.13-31.39-9.1-39.64 5.28l-10.4 18.12c0-.01.02-53.42 1.75-75.37z"/><path fill="#003177" d="M663.61 748.84c5.24-3.13 12.77-.75 19.89 5.65 19.92 17.9-12.36 68.24 6.53 111.42s97.32 68.77 114.1 62.13c52.95-20.94 107.76-3.93 107.76-3.93s36.05-22.82 2.42-140.56c-1.07-3.74 19.69 4.7 21.94 15.37 20.75 98.49-9.13 256.38-84.13 262.99-53.4 4.71-160.17-33.78-189.15-157.22 0 0-33.74-135.36.64-155.85z"/><path d="M766.4 820.01c-1.41.32-2.94.03-4.16-.94a4.9 4.9 0 0 1-.79-6.89c10.55-13.28 24.53-20.85 42.77-23.17a4.9 4.9 0 0 1 5.48 4.25 4.905 4.905 0 0 1-4.25 5.48c-15.78 2-27.32 8.21-36.32 19.54-.71.9-1.68 1.49-2.73 1.73zM857.42 882.64c-.19-.2-.39-.39-.6-.58.32.27.63.55.95.82-.54-.45-1.11-.83-1.74-1.15.37.19.75.37 1.12.56-.7-.33-1.42-.58-2.17-.73.42.08.83.17 1.25.25-.69-.13-1.38-.18-2.08-.15.44-.03.88-.06 1.31-.08-.71.05-1.39.18-2.07.4.41-.14.83-.29 1.24-.43-.75.26-1.44.61-2.1 1.05l1.05-.72c-.59.42-1.12.89-1.6 1.42.27-.32.55-.63.82-.95-.47.55-.86 1.13-1.19 1.77.19-.37.37-.75.56-1.12-.09.19-.18.39-.26.59-.49 1.19-1.26 2.2-2.43 2.79-1.09.55-2.65.71-3.8.26-2.35-.92-4.1-3.7-3.04-6.24 1.74-4.2 5.4-7.53 9.97-8.34 4.49-.79 9.01.79 12.16 4.04 1.79 1.85 1.59 5.3-.41 6.93-2.14 1.76-5.03 1.58-6.94-.39zM870.24 948.1c1.43-.2 2.86-.44 4.27-.73l.86-.17c2.65-.53 4.38-3.12 3.84-5.77-.53-2.65-2.96-4.39-5.77-3.85l-.87.17c-13.4 2.72-27.59.86-39.87-5.22a4.904 4.904 0 0 0-4.35 8.79c12.93 6.41 27.64 8.76 41.89 6.78z"/><circle cx="909.24" cy="871.83" r="16.35" fill="#f28d77"/><circle cx="774.32" cy="875.56" r="16.35" fill="#f28d77"/><path fill="#554edd" d="M677.73 1019.22s-99.13 33.98-163.01 60.64c-10.79 4.5-7.67 416.72-25.28 502.85s-81.46 328.91-81.46 328.91 83.95-1.37 151.69 7.16c67.74 8.54 165.01 9.98 168.93-.66 50.12-136.04 38.25-484.01 27.09-728.83-1.04-22.73-52.17-66.48-64.06-92.3-22.21-48.2-13.9-77.77-13.9-77.77z"/><path fill="#003177" d="M407.98 1911.62s63.85-242.79 81.46-328.91c17.61-86.13 14.49-498.34 25.28-502.85 20.57-8.59 34.19-21.17 61.77-24.23a55.224 55.224 0 0 1 42.81 13.62c48.8 43.48 66.47 153.56-55.07 402.3-36.23 74.14-48.39 151.81-60.15 193.31-30.32 106.98-55.23 171.98-47.4 192.49 7.83 20.51 33.77 29.35 92.74 36.52 25.4 3.09 98.51 14.88 147.85 15.13 0 0 32.67 5.47 31.33 9.12-3.92 10.64-101.19 9.2-168.93.66-67.75-8.53-151.69-7.16-151.69-7.16z" opacity=".3"/><path fill="#3838ba" d="M722.17 1550.19c3.12-194.8-7.5-421.19-7.5-421.19 18.48 21.85 40.33 45.51 41.01 60.29 11.16 244.82 23.03 592.78-27.09 728.83-1.73 4.69-21.59 7.03-49.06 7.45 9.2-48.3 40.18-221.53 42.64-375.38z"/><circle cx="736.5" cy="1252.84" r="8.79" fill="#003177"/><circle cx="740.6" cy="1340.58" r="8.79" fill="#003177"/><circle cx="740.6" cy="1424.56" r="8.79" fill="#003177"/><circle cx="740.6" cy="1527.29" r="8.79" fill="#003177"/><circle cx="736.5" cy="1686.72" r="8.79" fill="#003177"/><circle cx="727.7" cy="1784.34" r="8.79" fill="#003177"/><path fill="#003177" d="m879.63 1528.41 17.13-3.94c1.1-.25 1.79-1.35 1.53-2.45a2.035 2.035 0 0 0-2.45-1.53l-17.13 3.94c-1.1.25-1.79 1.35-1.53 2.45.25 1.1 1.35 1.78 2.45 1.53zM864.61 1256.92h17.58c1.13 0 2.04-.91 2.04-2.04s-.91-2.04-2.04-2.04h-17.58c-1.13 0-2.04.91-2.04 2.04s.91 2.04 2.04 2.04zM867.25 1343.03l17.56-.83c1.13-.05 2-1.01 1.94-2.14s-1.01-2-2.14-1.94l-17.56.83c-1.13.05-2 1.01-1.94 2.14.06 1.13 1.01 2 2.14 1.94zM868.44 1424.56l17.56-.83c1.13-.05 2-1.01 1.94-2.14-.05-1.13-1.01-2-2.14-1.94l-17.56.83c-1.13.05-2 1.01-1.94 2.14a2.058 2.058 0 0 0 2.14 1.94zM900.43 1685.19l17.29-3.2c1.11-.21 1.84-1.27 1.64-2.38s-1.27-1.84-2.38-1.64l-17.29 3.2c-1.11.21-1.84 1.27-1.64 2.38s1.27 1.84 2.38 1.64zM917.19 1782.8l17.29-3.2c1.11-.21 1.84-1.27 1.64-2.38s-1.27-1.84-2.38-1.64l-17.29 3.2c-1.11.21-1.84 1.27-1.64 2.38s1.27 1.84 2.38 1.64zM755.68 1189.3c.11 2.34.21 4.7.32 7.06-7.16-6.02-25.29-20.53-39.34-19.08-25.21 2.61-32.35 53.73-32.35 53.73l1.63-70.52 61.75 9.66c4.67 7.2 7.74 13.77 7.99 19.15z"/><path fill="#3838ba" d="M649.07 1040.9c.01-14.35 14.77-21.4 39.95-42.91l-.6 22.88-.03 1.03v.01c-.73 25.41 11.82 57.16 35.62 85.26 8.12 12.25 16.21 24.51 21.79 35.94 12.07 24.73 9.87 46.19 9.87 46.19l-11.24-11.13c-11.55-11.44-29.99-13.14-42.79-3.12-3.5 2.74-6.4 6.19-8.29 10.19-.25.53-.49 1.07-.71 1.62-.73 1.84-1.19 3.77-1.54 5.72l-6.8 38.41s-8.6-61.92-20.25-111.06c-8.1-34.22-14.99-56.19-14.98-79.03z"/></g><path fill="#6e92f9" d="M1926.59 1830.04H141.84c-26.22 0-47.47-21.25-47.47-47.47v-24.2c0-26.22 21.25-47.47 47.47-47.47h1784.75c26.22 0 47.47 21.25 47.47 47.47v24.2c0 26.22-21.25 47.47-47.47 47.47z"/><path fill="#554edd" d="M1923.84 1795.64H149.29c-29.03 0-52.57-19.19-52.57-42.86v-11.7a35.664 35.664 0 0 0-2.34 12.69v33.41c0 23.67 23.54 42.86 52.57 42.86H1921.5c29.03 0 52.57-19.19 52.57-42.86v-21.71c-6.64 17.47-26.62 30.17-50.23 30.17z"/><ellipse cx="1112.84" cy="1742.59" fill="#554edd" rx="330.96" ry="27.11"/><path fill="#f8fbff" d="M941.73 1107.31h320.36v282.17H941.73z" transform="rotate(-8.25 1101.902 1248.382)"/><ellipse cx="1022.28" cy="1173.53" fill="#8cb6f4" rx="28.96" ry="31.58" transform="rotate(-8.25 1022.274 1173.523)"/><path fill="#8cb6f4" d="m1167.49 1160.29-73.06 127.75-93.24-52.68-55.2 53.99 17.64 121.66 317.04-45.97-15.62-107.73z"/><path fill="#9952bd" d="m797.29 1124.26 87.78 304.33-19.67 3.62s-68.17-202.91-136.35-244.82c0 .01 21.1-42.76 68.24-63.13z"/><path fill="#e5c3ff" d="m783.44 1144.8 90.37 278.42c3.67 12.49 18.37 13.74 44.42 6.09s37.52-16.59 33.85-29.08l-74.32-283.13-94.32 27.7z"/><ellipse cx="830.6" cy="1130.95" fill="#6e92f9" rx="49.15" ry="23.57" transform="rotate(-16.367 830.572 1130.915)"/><defs><ellipse id="g" cx="830.6" cy="1130.95" rx="49.15" ry="23.57" transform="rotate(-16.367 830.572 1130.915)"/></defs><use fill="#9952bd" overflow="visible" xlink:href="#g"/><clipPath id="h"><use overflow="visible" xlink:href="#g"/></clipPath><ellipse cx="835.4" cy="1147.3" fill="#543e8b" clip-path="url(#h)" rx="40.67" ry="19.5" transform="rotate(-16.367 835.373 1147.262)"/><path fill="#6e92f9" d="M1052.97 1118.12h349.79v282.45h-349.79z" transform="rotate(4.968 1228.007 1259.494)"/><circle cx="1161.25" cy="1167.64" r="31.62" fill="#f8fbff"/><path fill="#554edd" d="m1210.32 1296.16-86.47-73.34-71.79 39.48-10.66 122.59 348.48 30.3z"/><path fill="#554edd" d="m1389.88 1415.19 9.34-107.47-80.25-118.6-206.13 201.98z"/><path fill="#6e92f9" d="m1428.17 1283.83-97.66 155.88 12.1 6.26s71.29-101.89 120.65-111.44c-.01 0-7.69-29.01-35.09-50.7z"/><path fill="#f8fbff" d="m1437.76 1286.91-111.79 189.79c-4.34 8.96-9.75 15.72-31.7 5.08s-21.61-14.8-17.27-23.76l81.27-209.63 79.49 38.52z"/><ellipse cx="1398.02" cy="1267.65" fill="#6e92f9" rx="18.04" ry="44.17" transform="rotate(-64.15 1398.035 1267.7)"/><defs><ellipse id="i" cx="1398.02" cy="1267.65" rx="18.04" ry="44.17" transform="rotate(-64.15 1398.035 1267.7)"/></defs><use fill="#b1ccfc" overflow="visible" xlink:href="#i"/><clipPath id="j"><use overflow="visible" xlink:href="#i"/></clipPath><ellipse cx="1392.33" cy="1279.39" fill="#8cb6f4" clip-path="url(#j)" rx="14.92" ry="36.55" transform="rotate(-64.15 1392.35 1279.432)"/><path fill="#543e8b" d="m1188.37 1287.47-140.05.01c-16.08 0-29.12 13.41-29.14 29.96l-.07 72.99c-.02 16.55 13.01 29.96 29.08 29.96l140.05-.01c16.08 0 29.12-13.42 29.14-29.96l.07-72.99c.02-16.54-13.01-29.96-29.08-29.96zm-7.36 93.81c-.01 11.52-7.77 20.86-17.34 20.86l-90.86.01c-9.56 0-17.31-9.34-17.3-20.85l.04-45.26c.01-11.52 7.77-20.86 17.34-20.86l90.86-.01c9.56 0 17.31 9.34 17.3 20.85l-.04 45.26z"/><path fill="#9952bd" d="m1369.63 1369.76-502.35.03c-14.85 0-26.9 12.39-26.91 27.67l-.3 317.46c-.01 15.28 12.01 27.67 26.86 27.67l502.35-.03c14.85 0 26.9-12.39 26.91-27.67l.3-317.46c.02-15.28-12.01-27.67-26.86-27.67z"/><path fill="#e5c3ff" d="M1155.46 1569.98h-74.29c-8.53 0-15.45 6.36-15.46 14.21l-.04 34.61c-.01 7.85 6.9 14.21 15.43 14.21h74.29c8.53 0 15.45-6.36 15.46-14.21l.04-34.61c0-7.85-6.9-14.21-15.43-14.21z"/><ellipse cx="1039.13" cy="1399.54" fill="#003177" rx="11.12" ry="11.47"/><ellipse cx="1041.4" cy="1398.17" fill="#543e8b" rx="11.12" ry="11.47"/><ellipse cx="1196.21" cy="1399.54" fill="#003177" rx="11.12" ry="11.47"/><ellipse cx="1198.48" cy="1398.17" fill="#543e8b" rx="11.12" ry="11.47"/><path fill="#543e8b" d="M1369.63 1369.76h-2.22l-.29 311.45c-.01 15.28-12.06 27.67-26.91 27.67l-500.12.03-.01 6c-.01 15.28 12.01 27.67 26.86 27.67l502.35-.03c14.85 0 26.9-12.39 26.91-27.67l.3-317.46c.01-15.27-12.02-27.66-26.87-27.66z"/><path fill="#554edd" d="M527.1 1073.32c70.2-2.38 85.75 92.07 81.14 162.94-4.21 64.61-79.35 220.64-91.16 244.98-45.22 22.18-116.94 76.08-159.24 122.45-13.13-63.46 8.95-232.42 43.8-345.65 42.19-137.05 81.14-183.22 125.46-184.72z"/><path fill="#003177" d="M571.12 1088.81c0-.01 0-.02.01-.04-11.43-10.22-25.9-16.07-44.03-15.46-44.31 1.5-83.27 47.67-125.46 184.72-34.86 113.24-56.94 282.2-43.8 345.65.06-.07.13-.13.19-.2 7.88-18 21.97-33.29 27.16-37.88-5.94-12.28 15.97-201.75 44.43-300.26 59.69-206.59 138.01-177.08 141.5-176.53z" opacity=".7"/><path fill="#f6ad83" d="M811.22 1494.33c24.83-27.73 37.02-46.21 49.26-54.69 73.36-50.9 115.92-64.11 140.43-80.5 14.55-9.73-53.75-18.3-70.22-18.01-16.47.29-84.51 24.11-105.08 38.14-20.57 14.04-35.67 24.77-51.09 32.88-17.37 9.12-176.23 36.54-273.49 92.35-84.89 48.71-80.84 109.4-74.45 130.07 6.17 19.95 13.65 42.59 38.34 43.01 68.12 1.17 120.78-21.87 182.81-65.8 86.98-61.6 163.49-117.45 163.49-117.45z"/><path fill="#f4a076" d="M1002.89 1356.06c-17.1-2.68-75.89 23.76-104.08 31.82-30.68 8.77-62.99 44.43-90.71 75.9s-218.8 144.62-292.24 172.34c-45.97 17.35-73.77 10.01-88.14 2.09 6 18.96 14.01 38.97 37.21 39.36 68.12 1.17 120.78-21.87 182.81-65.8 86.98-61.6 163.49-117.44 163.49-117.44 24.83-27.73 37.02-46.21 49.26-54.69 73.36-50.9 115.92-64.11 140.43-80.5 1.54-1.05 2.15-2.08 1.97-3.08z"/><path fill="#3838ba" d="M532.61 1480.65c-25.84 0 1.91-24.16-72.9 7.99-18.28 7.86-36.27 17.16-56.69 30.8-23.18 15.48-42.4 36.29-45.34 72.07-5.77 70.13 100.69 85.86 100.69 85.86s-99.21-79.98 47.4-173.12c18.92-12.02 57.57-23.6 26.84-23.6z"/><path fill="#003177" d="M515.29 1472.9c-13.07 6.04-30.66 15.17-20.76 16.54 8.14 1.12 22.04-4.14 33.05-9.18-7.43-1.28-8.2-5.45-12.29-7.36zM458.37 1677.37s-18.96-15.29-28.06-40.28c-26.85-14.71-57.8-34.75-66.43-52.79-1.48-3.1-2.57-6.38-3.35-9.78-1.38 5.26-2.36 10.9-2.86 16.98-5.75 70.13 100.7 85.87 100.7 85.87z" opacity=".8"/><ellipse cx="275.75" cy="1751.47" fill="#554edd" rx="114.76" ry="13.01"/><path fill="#a9ca5a" d="M262.86 1556.59s-28.53-83.4-52.67-63.65-2.66 47.14 12.93 58.68 46.33 24.72 39.74 4.97zM312.08 1595.66c4.67-8.17 18.93-58.9 39.97-65.21 12.8-3.84 23.96-2.8 29.7 4.13 3.69 4.46 5.14 11.37 3.31 20.98-11.97 63.13-98.22 84.27-72.98 40.1z"/><path fill="#14966a" d="M312.08 1595.66c3.36-5.88 11.71-33.86 23.98-51.4.38 4.44.64 9.13.76 14.1.56 24.04-1.08 43.09-3.8 58.07-19.1 6.75-33.22.72-20.94-20.77zM236.85 1560.05c-.79-15.71-.3-35.29 3.6-51.3 12.79 19.72 22.42 47.83 22.42 47.83 4.93 14.82-11.11 11.12-26.02 3.47z"/><path fill="#a9ca5a" d="M295.58 1669.53c4.16-1.32 28.86-24.58 26.9-108.25-1.96-83.67-43.66-90.25-61.22-70.5-17.56 19.75-15.22 73.37-12 93.75s1.64 99.15 46.32 85z"/><path fill="#14966a" d="M254.83 1631.24c-3.68-18.35-4.18-37.94-5.57-46.72-3.22-20.38-5.56-73.99 12-93.75 4.88-5.49 11.61-8.93 18.85-9.27-6.8 13.06-14.09 35.82-14.87 74.06-.83 40.72 14.64 86.66 14.64 86.66l-25.05-10.98zM311.82 1505.64c5.96 12.59 10.08 30.68 10.66 55.63.93 39.85-4.18 65.99-10.24 82.59l-12.55-5.93s4.49-4.49 10.13-64.29c2.97-31.49 2.81-53.87 2-68z" opacity=".5"/><path fill="#9952bd" d="M251.97 1754.55h58.43c19.22 0 35.45-14.28 37.9-33.34l8.81-68.51H205.26l8.81 68.51c2.45 19.07 18.68 33.34 37.9 33.34z"/><path fill="#543e8b" d="m221.36 1652.7 7.39 57.5c2.45 19.06 18.68 33.34 37.9 33.34h58.43c5.28 0 10.32-1.11 14.93-3.07-7.05 8.64-17.75 14.08-29.61 14.08h-58.43c-19.22 0-35.45-14.28-37.9-33.34l-8.81-68.51h16.1z"/><path fill="#e5c3ff" d="M192.25 1659.24H367.5c5.11 0 9.25-4.14 9.25-9.25v-15.54c0-5.11-4.14-9.25-9.25-9.25H192.25c-5.11 0-9.25 4.14-9.25 9.25V1650c.01 5.1 4.15 9.24 9.25 9.24z"/><path fill="#9952bd" d="M192.25 1625.21h1.24v14.3c0 5.11 4.14 9.25 9.25 9.25h174.01v1.24c0 5.11-4.14 9.25-9.25 9.25H192.25c-5.11 0-9.25-4.14-9.25-9.25v-15.54c.01-5.11 4.15-9.25 9.25-9.25z" opacity=".5"/><path fill="#14966a" d="M375.92 1540.98c-2.56.44-5.12.88-7.68 1.33-.87.15-1.44 1.27-1.18 2.07.3.94 1.14 1.34 2.07 1.18 2.56-.44 5.12-.88 7.68-1.33.87-.15 1.44-1.27 1.18-2.07-.3-.95-1.13-1.34-2.07-1.18zM356.34 1535.9c0 .5-.02 1-.06 1.5-.01.15-.03.31-.04.46-.01.09.01.28-.04.34.03-.24.04-.29.02-.16l-.03.17c-.02.13-.04.27-.07.4-.18 1.01-.44 1.99-.78 2.95-.29.83.33 1.88 1.18 2.07.94.21 1.76-.29 2.07-1.18.74-2.1 1.11-4.34 1.11-6.56 0-.88-.77-1.73-1.68-1.68-.91.05-1.68.75-1.68 1.69zM290.44 1489.48c0 .5-.02 1-.06 1.5-.01.15-.03.31-.04.46-.01.09.01.28-.04.34.03-.24.04-.29.02-.16l-.03.17c-.02.13-.04.27-.07.4-.18 1.01-.44 1.99-.78 2.95-.29.83.33 1.88 1.18 2.07.94.21 1.76-.29 2.07-1.18.74-2.1 1.11-4.34 1.11-6.56 0-.88-.77-1.73-1.68-1.68-.91.04-1.68.74-1.68 1.69zM365.65 1562.26h-5.61c-.88 0-1.73.78-1.68 1.68.04.91.74 1.68 1.68 1.68h5.61c.88 0 1.73-.78 1.68-1.68-.03-.91-.73-1.68-1.68-1.68zM259.17 1505.29c2.56.44 5.12.88 7.68 1.33.87.15 1.86-.23 2.07-1.18.19-.82-.25-1.91-1.18-2.07-2.56-.44-5.12-.88-7.68-1.33-.87-.15-1.86.23-2.07 1.18-.18.81.25 1.9 1.18 2.07zM276.28 1496.96c0 2.22.37 4.47 1.11 6.56.29.83 1.16 1.47 2.07 1.18.82-.26 1.49-1.18 1.18-2.07-.34-.96-.6-1.95-.78-2.95-.02-.13-.05-.27-.07-.4-.02-.12-.03-.48 0-.01-.01-.25-.06-.5-.08-.75-.04-.52-.06-1.04-.06-1.56 0-.88-.78-1.73-1.68-1.68-.91.04-1.68.74-1.69 1.68zM270.34 1526.69h5.61c.88 0 1.73-.77 1.68-1.68-.04-.91-.74-1.68-1.68-1.68h-5.61c-.88 0-1.73.77-1.68 1.68.04.91.74 1.68 1.68 1.68zM344.59 1575.16v4.59c0 .88.77 1.73 1.68 1.68.91-.04 1.68-.74 1.68-1.68v-4.59c0-.88-.77-1.73-1.68-1.68-.91.04-1.68.74-1.68 1.68zM356.67 1592.22h-5.61c-.88 0-1.73.78-1.68 1.68.04.91.74 1.68 1.68 1.68h5.61c.88 0 1.73-.78 1.68-1.68-.04-.91-.74-1.68-1.68-1.68zM335.61 1605.12v4.59c0 .88.77 1.73 1.68 1.68.91-.04 1.68-.74 1.68-1.68v-4.59c0-.88-.77-1.73-1.68-1.68-.91.03-1.68.73-1.68 1.68zM308.72 1517.13c-1.39.8-2.78 1.59-4.17 2.39-.37.21-.66.6-.77 1.01-.11.4-.06.94.17 1.3.5.77 1.49 1.07 2.31.6 1.39-.8 2.78-1.59 4.17-2.39.37-.21.66-.6.77-1.01.11-.4.06-.94-.17-1.3-.5-.77-1.49-1.07-2.31-.6zM294.63 1552.58c-1.19 1.02-2.38 2.04-3.57 3.05-.31.27-.49.79-.49 1.19 0 .41.18.91.49 1.19.32.29.74.51 1.19.49.47-.02.84-.19 1.19-.49 1.19-1.02 2.38-2.04 3.57-3.05.31-.27.49-.79.49-1.19 0-.41-.18-.91-.49-1.19-.32-.29-.74-.51-1.19-.49-.46.02-.83.19-1.19.49zM269.82 1562.79c.17.34.35.68.52 1.02.11.2.25.35.43.47.16.15.35.25.57.3.22.07.45.08.67.03.22-.01.43-.08.63-.2.11-.09.23-.18.34-.26.21-.21.35-.46.43-.74l.06-.45c0-.3-.08-.59-.23-.85-.17-.34-.35-.68-.52-1.02a1.3 1.3 0 0 0-.43-.47 1.21 1.21 0 0 0-.57-.3c-.22-.07-.45-.08-.67-.03-.22.01-.43.08-.63.2-.11.09-.23.18-.34.26-.21.21-.35.46-.43.74l-.06.45c0 .3.07.58.23.85zM313.18 1589.3c-3.06 1.01-6.12 2.03-9.18 3.04-.84.28-1.47 1.18-1.18 2.07.27.83 1.18 1.47 2.07 1.18 3.06-1.01 6.12-2.03 9.18-3.04.84-.28 1.47-1.18 1.18-2.07-.26-.84-1.17-1.48-2.07-1.18zM256.88 1590.63l3.57 3.57c.31.31.76.49 1.19.49.41 0 .91-.18 1.19-.49.29-.32.51-.74.49-1.19-.02-.45-.17-.87-.49-1.19l-3.57-3.57c-.31-.31-.76-.49-1.19-.49-.41 0-.91.18-1.19.49-.29.32-.51.74-.49 1.19.02.45.17.87.49 1.19zM218.66 1502.76v3.06c0 .43.19.89.49 1.19.29.29.77.51 1.19.49.44-.02.89-.16 1.19-.49.3-.33.49-.73.49-1.19v-3.06c0-.43-.19-.89-.49-1.19-.29-.29-.77-.51-1.19-.49-.44.02-.89.16-1.19.49-.3.33-.49.74-.49 1.19zM216.46 1517.7c-.02.01-.05.02-.07.03.13-.06.27-.11.4-.17-.41.17-.84.29-1.28.35l.45-.06c-.44.05-.88.05-1.33 0l.45.06a4.83 4.83 0 0 1-1.35-.37c.13.06.27.11.4.17-.38-.17-.74-.38-1.08-.63-.32-.25-.93-.27-1.3-.17-.39.11-.81.41-1.01.77-.21.39-.31.86-.17 1.3.14.45.41.72.77 1.01.96.74 2.13 1.09 3.32 1.23 1.21.14 2.38-.13 3.49-.61.36-.16.67-.65.77-1.01.11-.4.06-.94-.17-1.3-.23-.36-.58-.68-1.01-.77-.45-.11-.84-.02-1.28.17zM231.11 1528.92c-.41.55-.71 1.2-.92 1.85-.09.27-.15.54-.19.81-.06.42-.12.83-.11 1.25.01.44.18.88.49 1.19.29.29.77.51 1.19.49.44-.02.89-.16 1.19-.49.3-.33.5-.74.49-1.19-.01-.26.01-.52.04-.78l-.06.45c.06-.43.18-.85.35-1.25-.06.13-.11.27-.17.4.16-.37.36-.72.6-1.04.12-.19.19-.4.2-.63.05-.22.04-.45-.03-.67-.11-.39-.41-.81-.77-1.01-.39-.21-.86-.31-1.3-.17-.13.06-.27.11-.4.17-.25.17-.45.37-.6.62z"/><ellipse cx="1761.32" cy="1745.63" fill="#554edd" rx="183.18" ry="15.01"/><path fill="#6e92f9" d="m1796.16 1720.09-25.72-9.16 135.86-381.67-181.57-282.99 22.98-14.74 188.8 294.27zM1716.1 1700.02h-27.84c-3.6 0-6.54-2.94-6.54-6.54v-9.55c0-3.6 2.94-6.54 6.54-6.54h27.84c3.6 0 6.54 2.94 6.54 6.54v9.54c0 3.61-2.94 6.55-6.54 6.55z"/><path fill="#6e92f9" d="m1749.9 1045.7-17.98 12.62-51.11-72.99 18-12.6z"/><path fill="#3838ba" d="M1768.93 1054.73c-2.2 16.63-18.62 28.19-36.67 25.8-18.04-2.39-30.88-17.82-28.68-34.45 2.2-16.65 18.62-28.2 36.66-25.81 18.05 2.39 30.9 17.81 28.69 34.46z"/><path fill="#003177" d="M1757 1053.15c-1.4 10.56-11.82 17.9-23.28 16.38-11.45-1.52-19.61-11.32-18.21-21.88 1.4-10.57 11.82-17.9 23.27-16.38 11.47 1.52 19.62 11.31 18.22 21.88z"/><path fill="#3838ba" d="M1907.69 1741.67v-4.62c0-24.05-19.49-43.57-43.54-43.57h-189.94c-24.05 0-43.55 19.52-43.55 43.57v4.62h277.03z"/><path fill="#14966a" d="M1703.63 957.64c-11.97-15.48-34.42-18.33-49.88-6.34l-25.47 19.71-135.78 29.31c-6.91 1.5-10.33 9.54-6.26 14.79l107.38 138.65c4.08 5.26 12.72 3.96 15.91-2.36l62.3-124.16 25.47-19.71c15.46-11.98 18.31-34.42 6.33-49.89z"/><path fill="#a9ca5a" d="M1693.91 949.04c-12.21-7.35-28.25-6.95-40.16 2.26l-25.47 19.71-135.78 29.31c-6.91 1.5-10.33 9.54-6.26 14.79l97.63 126.05c4.24 1.35 9.49-.54 11.83-5.17l62.3-124.16 25.47-19.71c13.32-10.32 17.25-28.39 10.44-43.08z"/><path fill="#3838ba" d="M1948.01 1336.96c-2.2 16.63-18.62 28.19-36.67 25.8-18.04-2.39-30.88-17.82-28.68-34.45 2.2-16.65 18.62-28.2 36.66-25.81 18.05 2.38 30.9 17.81 28.69 34.46z"/><path fill="#003177" d="M1936.09 1335.38c-1.4 10.56-11.82 17.9-23.28 16.38-11.45-1.52-19.61-11.32-18.21-21.88 1.4-10.57 11.82-17.9 23.27-16.39 11.46 1.53 19.61 11.32 18.22 21.89z"/></g></svg>